<svg xmlns="http://www.w3.org/2000/svg" viewBox="0 0 200 200" width="200" height="200">
  <defs>
    <linearGradient id="catGrad" x1="0%" y1="0%" x2="0%" y2="100%">
      <stop offset="0%" style="stop-color:#F472B6"/>
      <stop offset="100%" style="stop-color:#EC4899"/>
    </linearGradient>
  </defs>
  
  <!-- 猫耳 -->
  <polygon points="55,45 40,10 75,35" fill="url(#catGrad)"/>
  <polygon points="145,45 160,10 125,35" fill="url(#catGrad)"/>
  <polygon points="58,42 48,18 72,37" fill="#FCE7F3"/>
  <polygon points="142,42 152,18 128,37" fill="#FCE7F3"/>
  
  <!-- 头部 -->
  <circle cx="100" cy="80" r="52" fill="url(#catGrad)"/>
  
  <!-- 耳朵内侧 -->
  <ellipse cx="55" cy="70" rx="8" ry="12" fill="#FCE7F3"/>
  <ellipse cx="145" cy="70" rx="8" ry="12" fill="#FCE7F3"/>
  
  <!-- 眼睛 - 猫眼 -->
  <ellipse cx="78" cy="78" rx="12" ry="14" fill="white"/>
  <ellipse cx="122" cy="78" rx="12" ry="14" fill="white"/>
  <ellipse cx="78" cy="80" rx="7" ry="10" fill="#1E293B"/>
  <ellipse cx="122" cy="80" rx="7" ry="10" fill="#1E293B"/>
  <circle cx="82" cy="76" r="3" fill="white"/>
  <circle cx="126" cy="76" r="3" fill="white"/>
  
  <!-- 鼻子 -->
  <ellipse cx="100" cy="92" rx="4" ry="3" fill="#BE185D"/>
  
  <!-- 嘴巴 - 猫嘴 -->
  <path d="M 92 96 Q 100 102 108 96" stroke="#BE185D" stroke-width="2" fill="none" stroke-linecap="round"/>
  
  <!-- 胡须 -->
  <line x1="55" y1="88" x2="35" y2="82" stroke="#BE185D" stroke-width="1.5" stroke-linecap="round"/>
  <line x1="55" y1="95" x2="32" y2="95" stroke="#BE185D" stroke-width="1.5" stroke-linecap="round"/>
  <line x1="55" y1="102" x2="35" y2="108" stroke="#BE185D" stroke-width="1.5" stroke-linecap="round"/>
  <line x1="145" y1="88" x2="165" y2="82" stroke="#BE185D" stroke-width="1.5" stroke-linecap="round"/>
  <line x1="145" y1="95" x2="168" y2="95" stroke="#BE185D" stroke-width="1.5" stroke-linecap="round"/>
  <line x1="145" y1="102" x2="165" y2="108" stroke="#BE185D" stroke-width="1.5" stroke-linecap="round"/>
  
  <!-- 腮红 -->
  <ellipse cx="65" cy="95" rx="8" ry="5" fill="#F9A8D4" opacity="0.7"/>
  <ellipse cx="135" cy="95" rx="8" ry="5" fill="#F9A8D4" opacity="0.7"/>
  
  <!-- 身体 -->
  <ellipse cx="100" cy="155" rx="40" ry="35" fill="url(#catGrad)"/>
  
  <!-- 肚子 -->
  <ellipse cx="100" cy="158" rx="25" ry="22" fill="#FCE7F3"/>
  
  <!-- 爪子 -->
  <ellipse cx="70" cy="175" rx="12" ry="8" fill="url(#catGrad)"/>
  <ellipse cx="130" cy="175" rx="12" ry="8" fill="url(#catGrad)"/>
  <circle cx="65" cy="173" r="3" fill="#FCE7F3"/>
  <circle cx="70" cy="170" r="3" fill="#FCE7F3"/>
  <circle cx="75" cy="173" r="3" fill="#FCE7F3"/>
  <circle cx="125" cy="173" r="3" fill="#FCE7F3"/>
  <circle cx="130" cy="170" r="3" fill="#FCE7F3"/>
  <circle cx="135" cy="173" r="3" fill="#FCE7F3"/>
  
  <!-- 机器人标记 -->
  <rect x="90" y="148" width="20" height="16" rx="4" fill="#BE185D"/>
  <circle cx="100" cy="156" r="4" fill="#FCE7F3"/>
</svg>
